<?xml version="1.0" encoding="utf-8"?>
<!-- Generator: Adobe Illustrator 24.2.0, SVG Export Plug-In . SVG Version: 6.00 Build 0)  -->
<svg version="1.1" id="Layer_5" xmlns="http://www.w3.org/2000/svg" xmlns:xlink="http://www.w3.org/1999/xlink" x="0px" y="0px"
	 viewBox="0 0 512 512" style="enable-background:new 0 0 512 512;" xml:space="preserve">
<style type="text/css">
	.st0{fill:#FCFCFC;}
</style>
<g>
	<path class="st0" d="M168,424h16v16h-16V424z"/>
	<path class="st0" d="M168,456h16v16h-16V456z"/>
	<path class="st0" d="M352.3,264c7.2,0,14.1-3.2,18.7-8.8l32.7-39.2H464c22.1,0,40-17.9,40-40V96c0-22.1-17.9-40-40-40h-40
		c0-26.5-21.5-48-48-48s-48,21.5-48,48h-40c-22.1,0-40,17.9-40,40v44.2c-15.2-12.6-34.7-20.2-56-20.2h-8
		c-26.5,0-51.9,12.2-68.5,32.8C90.2,158.9,72,181.8,72,208c0,27.6,11.8,53.5,32.4,71.8c2.7,24.9,18.1,45.9,39.6,56.6v17.3
		l-55.8,13.1C41,377.9,8,419.5,8,468v36h336v-36c0-15.7-3.5-30.6-9.7-44h30l32.7,39.2c4.6,5.6,11.5,8.8,18.7,8.8
		c13.4,0,24.3-10.9,24.3-24.3V424h24c22.1,0,40-17.9,40-40v-64c0-22.1-17.9-40-40-40H304c-22.1,0-40,17.9-40,40v46.8
		c-0.1,0-0.1,0-0.2,0L208,353.7v-17.3c21.5-10.7,36.9-31.8,39.6-56.6c18.6-16.5,30-39.2,32-63.8H328v23.7
		C328,253.1,338.9,264,352.3,264L352.3,264z M376,24c17.6,0,32,14.4,32,32s-14.4,32-32,32s-32-14.4-32-32S358.4,24,376,24z
		 M148.7,369l17.3,23l-18.6,24.8l-16.1-43.7L148.7,369z M176,405.3l22,29.4L178.4,488h-4.8L154,434.7L176,405.3z M24,468
		c0-41,27.9-76.3,67.8-85.7l23.7-5.6l41,111.2H88v-48H72v48H24V468z M280,320c0-13.2,10.8-24,24-24h160c13.2,0,24,10.8,24,24v64
		c0,13.2-10.8,24-24,24h-40v39.7c0,4.6-3.7,8.3-8.3,8.3c-2.5,0-4.8-1.1-6.4-3l-37.5-45H325c-11.1-15.7-26.5-28.3-45-36L280,320z
		 M328,468v20h-48v-48h-16v48h-68.5l41-111.2l23.7,5.6C300.1,391.8,328,427,328,468L328,468z M220.8,373.1l-16.1,43.7L186,392
		l17.3-23L220.8,373.1z M192,357.3l-16,21.3l-16-21.3v-15.2c5.2,1.2,10.5,1.9,16,1.9s10.8-0.7,16-1.9V357.3z M232,272
		c0,30.9-25.1,56-56,56s-56-25.1-56-56v-37.6c0-5.8,4.7-10.4,10.4-10.4c2.1,0,4.1,0.6,5.8,1.8l21.4,14.2H208c13.2,0,24,10.8,24,24
		L232,272z M247.3,256.9c-3.4-18.7-19.7-32.9-39.3-32.9h-45.6l-17.3-11.6c-4.4-2.9-9.4-4.4-14.7-4.4c-14.6,0-26.4,11.8-26.4,26.4
		v21.5c-10.3-13.7-16-30.4-16-47.9c0-19.4,13.8-36.2,32.8-40l3.8-0.8l1.8-2.4c13.5-18,35.1-28.8,57.6-28.8h8c39.7,0,72,32.3,72,72
		C264,225.9,258,243,247.3,256.9z M279.6,200c-1.4-15.7-7-30.2-15.6-42.4V96c0-13.2,10.8-24,24-24h42.8c3.1,8.7,8.5,16.2,15.6,21.7
		C316.9,105.5,296,134.3,296,168v16h160v-16c0-33.7-20.9-62.5-50.4-74.3c7.1-5.6,12.6-13.1,15.6-21.7H464c13.2,0,24,10.8,24,24v80
		c0,13.2-10.8,24-24,24h-67.8l-37.5,45c-1.6,1.9-3.9,3-6.4,3c-4.6,0-8.3-3.7-8.3-8.3V200H279.6z M376,104c35.3,0,64,28.7,64,64H312
		C312,132.7,340.7,104,376,104z"/>
	<path class="st0" d="M296,312h176v16H296V312z"/>
	<path class="st0" d="M296,344h176v16H296V344z"/>
	<path class="st0" d="M328,376h112v16H328V376z"/>
	<path class="st0" d="M456,376h16v16h-16V376z"/>
</g>
</svg>
