<?xml version="1.0" encoding="utf-8"?>
<!-- Generator: Adobe Illustrator 24.2.0, SVG Export Plug-In . SVG Version: 6.00 Build 0)  -->
<svg version="1.1" id="Capa_1" xmlns="http://www.w3.org/2000/svg" xmlns:xlink="http://www.w3.org/1999/xlink" x="0px" y="0px"
	 viewBox="0 0 508 508" style="enable-background:new 0 0 508 508;" xml:space="preserve">
<style type="text/css">
	.st0{fill:#FFFFFF;}
</style>
<g>
	<g>
		<rect x="49.2" y="225.5" class="st0" width="81.9" height="16.4"/>
	</g>
</g>
<g>
	<g>
		<rect x="49.2" y="274.7" class="st0" width="122.9" height="16.4"/>
	</g>
</g>
<g>
	<g>
		<rect x="49.2" y="323.9" class="st0" width="295" height="16.4"/>
	</g>
</g>
<g>
	<g>
		<rect x="49.2" y="373" class="st0" width="49.2" height="16.4"/>
	</g>
</g>
<g>
	<g>
		<rect x="131.1" y="373" class="st0" width="49.2" height="16.4"/>
	</g>
</g>
<g>
	<g>
		<rect x="213.1" y="373" class="st0" width="49.2" height="16.4"/>
	</g>
</g>
<g>
	<g>
		<path class="st0" d="M336,217.3c-6,0-11.5,1.7-16.3,4.5c-5-2.9-10.6-4.5-16.5-4.5c-18.1,0-32.8,14.7-32.8,32.8
			s14.7,32.8,32.8,32.8c5.9,0,11.5-1.6,16.5-4.5c4.8,2.8,10.3,4.5,16.3,4.5c18.1,0,32.8-14.7,32.8-32.8S354.1,217.3,336,217.3z
			 M307.4,265.9c-1.4,0.4-2.8,0.6-4.2,0.6c-9,0-16.4-7.4-16.4-16.4s7.4-16.4,16.4-16.4c1.4,0,2.9,0.3,4.2,0.6
			c-2.6,4.7-4.2,10-4.2,15.8C303.2,255.9,304.8,261.2,307.4,265.9z M336,266.5c-9,0-16.4-7.4-16.4-16.4s7.4-16.4,16.4-16.4
			s16.4,7.4,16.4,16.4S345,266.5,336,266.5z"/>
	</g>
</g>
<g>
	<g>
		<path class="st0" d="M490.9,179.4L147.1,70.8c-2.4-0.8-21.6-7.1-30.8,16L88,176.3H24.6C11,176.4,0,187.4,0,200.9V414
			c0,13.6,11,24.6,24.6,24.6h360.6c8.6,0,16.1-4.4,20.5-11.1c0,0,11.1,3.1,13.6,3.1c10.8,0,20.2-6.9,23.4-17.2l64.2-203.2
			C508.9,204,510.3,184.6,490.9,179.4z M122,123l168.9,53.3H182l-69.9-22.1L122,123z M107.2,169.9l20.5,6.5h-22.5L107.2,169.9z
			 M393.4,414h-0.1c0,4.5-3.7,8.2-8.2,8.2H24.6c-4.5,0-8.2-3.7-8.2-8.2V200.9c0-4.5,3.7-8.2,8.2-8.2h360.6c4.5,0,8.2,3.7,8.2,8.2
			L393.4,414L393.4,414z M427.1,408.5c-1.3,4.2-6.1,6.7-10.3,5.3l-7.1-2.2V265.5l56.9,18L427.1,408.5z M471.5,267.8l-61.8-19.5
			v-34.4l71.7,22.6L471.5,267.8z M491.3,205.3l-4.9,15.6l-77.1-24.3c-2.1-11.5-12.1-20.2-24.1-20.2h-39.9l-218.4-69l4.9-15.6
			c1.3-4.2,6-6.7,10.3-5.3L485.9,195C492.8,196.8,491.9,203.2,491.3,205.3z"/>
	</g>
</g>
</svg>
